<svg xmlns="http://www.w3.org/2000/svg" xmlns:xlink="http://www.w3.org/1999/xlink" xmlns:lucid="lucid" width="1280" height="711"><g transform="translate(-240 -100)" lucid:page-tab-id="0_0"><path d="M0 0h1760v1360H0z" fill="#fff"/><path d="M770 140h220v114H770z" fill="none"/><use xlink:href="#a" transform="matrix(1,0,0,1,770,140) translate(0 21.94444444444445)"/><use xlink:href="#b" transform="matrix(1,0,0,1,770,140) translate(81.35802469135801 21.94444444444445)"/><use xlink:href="#c" transform="matrix(1,0,0,1,770,140) translate(106.04938271604937 21.94444444444445)"/><use xlink:href="#d" transform="matrix(1,0,0,1,770,140) translate(0 48.611111111111114)"/><use xlink:href="#e" transform="matrix(1,0,0,1,770,140) translate(24.691358024691358 48.611111111111114)"/><use xlink:href="#f" transform="matrix(1,0,0,1,770,140) translate(55.55555555555556 48.611111111111114)"/><use xlink:href="#g" transform="matrix(1,0,0,1,770,140) translate(98.76543209876544 48.611111111111114)"/><use xlink:href="#d" transform="matrix(1,0,0,1,770,140) translate(0 75.27777777777779)"/><use xlink:href="#h" transform="matrix(1,0,0,1,770,140) translate(24.691358024691358 75.27777777777779)"/><use xlink:href="#i" transform="matrix(1,0,0,1,770,140) translate(55.55555555555556 75.27777777777779)"/><use xlink:href="#j" transform="matrix(1,0,0,1,770,140) translate(98.76543209876544 75.27777777777779)"/><use xlink:href="#k" transform="matrix(1,0,0,1,770,140) translate(161.66666666666669 75.27777777777779)"/><use xlink:href="#l" transform="matrix(1,0,0,1,770,140) translate(0 101.94444444444446)"/><use xlink:href="#m" transform="matrix(1,0,0,1,770,140) translate(37.03703703703704 101.94444444444446)"/><use xlink:href="#n" transform="matrix(1,0,0,1,770,140) translate(55.55555555555556 101.94444444444446)"/><use xlink:href="#j" transform="matrix(1,0,0,1,770,140) translate(98.76543209876544 101.94444444444446)"/><use xlink:href="#o" transform="matrix(1,0,0,1,770,140) translate(161.66666666666669 101.94444444444446)"/><path d="M260 126c0-3.3 2.7-6 6-6h308c3.3 0 6 2.7 6 6v608c0 3.3-2.7 6-6 6H266c-3.3 0-6-2.7-6-6z" stroke="#5e5e5e" stroke-width="3" fill="#ccc"/><use xlink:href="#p" transform="matrix(1,0,0,1,265,125) translate(0 17.77777777777778)"/><use xlink:href="#q" transform="matrix(1,0,0,1,265,125) translate(0 44.44444444444444)"/><use xlink:href="#r" transform="matrix(1,0,0,1,265,125) translate(18.51851851851852 44.44444444444444)"/><use xlink:href="#r" transform="matrix(1,0,0,1,265,125) translate(61.7283950617284 44.44444444444444)"/><use xlink:href="#s" transform="matrix(1,0,0,1,265,125) translate(104.93827160493828 44.44444444444444)"/><use xlink:href="#t" transform="matrix(1,0,0,1,265,125) translate(0 71.11111111111111)"/><use xlink:href="#u" transform="matrix(1,0,0,1,265,125) translate(18.51851851851852 71.11111111111111)"/><use xlink:href="#r" transform="matrix(1,0,0,1,265,125) translate(61.7283950617284 71.11111111111111)"/><use xlink:href="#v" transform="matrix(1,0,0,1,265,125) translate(104.93827160493828 71.11111111111111)"/><use xlink:href="#w" transform="matrix(1,0,0,1,265,125) translate(167.83950617283952 71.11111111111111)"/><use xlink:href="#x" transform="matrix(1,0,0,1,265,125) translate(0 97.77777777777777)"/><use xlink:href="#y" transform="matrix(1,0,0,1,265,125) translate(30.864197530864196 97.77777777777777)"/><use xlink:href="#r" transform="matrix(1,0,0,1,265,125) translate(61.72839506172839 97.77777777777777)"/><use xlink:href="#v" transform="matrix(1,0,0,1,265,125) translate(104.93827160493828 97.77777777777777)"/><use xlink:href="#z" transform="matrix(1,0,0,1,265,125) translate(167.83950617283952 97.77777777777777)"/><use xlink:href="#A" transform="matrix(1,0,0,1,265,125) translate(0 124.44444444444446)"/><path d="M720 266c0-3.3 2.7-6 6-6h308c3.3 0 6 2.7 6 6v128c0 3.3-2.7 6-6 6H726c-3.3 0-6-2.7-6-6zM720 706c0-3.3 2.7-6 6-6h308c3.3 0 6 2.7 6 6v28c0 3.3-2.7 6-6 6H726c-3.3 0-6-2.7-6-6z" stroke="#5e5e5e" stroke-width="3" fill="#ccc"/><path d="M260 746c0-3.3 2.7-6 6-6h308c3.3 0 6 2.7 6 6v28c0 3.3-2.7 6-6 6H266c-3.3 0-6-2.7-6-6zM720 746c0-3.3 2.7-6 6-6h308c3.3 0 6 2.7 6 6v28c0 3.3-2.7 6-6 6H726c-3.3 0-6-2.7-6-6zM720 403.33c0-1.84 1.5-3.33 3.33-3.33h313.34c1.84 0 3.33 1.5 3.33 3.33 0 1.84-1.5 3.34-3.33 3.34H723.33c-1.84 0-3.33-1.5-3.33-3.34z" stroke="#5e5e5e" stroke-width="3" fill="#999"/><path d="M1180 706c0-3.3 2.7-6 6-6h308c3.3 0 6 2.7 6 6v28c0 3.3-2.7 6-6 6h-308c-3.3 0-6-2.7-6-6z" stroke="#5e5e5e" stroke-width="3" fill="#ccc"/><path d="M1180 746c0-3.3 2.7-6 6-6h308c3.3 0 6 2.7 6 6v28c0 3.3-2.7 6-6 6h-308c-3.3 0-6-2.7-6-6z" stroke="#5e5e5e" stroke-width="3" fill="#999"/><path d="M1180 666c0-3.3 2.7-6 6-6h308c3.3 0 6 2.7 6 6v28c0 3.3-2.7 6-6 6h-308c-3.3 0-6-2.7-6-6zM1180 626c0-3.3 2.7-6 6-6h308c3.3 0 6 2.7 6 6v28c0 3.3-2.7 6-6 6h-308c-3.3 0-6-2.7-6-6z" stroke="#5e5e5e" stroke-width="3" fill="#ccc"/><path d="M770 580h220v114H770z" fill="none"/><g><use xlink:href="#a" transform="matrix(1,0,0,1,770,580) translate(0 21.94444444444445)"/><use xlink:href="#B" transform="matrix(1,0,0,1,770,580) translate(81.35802469135801 21.94444444444445)"/><use xlink:href="#C" transform="matrix(1,0,0,1,770,580) translate(106.04938271604937 21.94444444444445)"/><use xlink:href="#d" transform="matrix(1,0,0,1,770,580) translate(0 48.611111111111114)"/><use xlink:href="#e" transform="matrix(1,0,0,1,770,580) translate(24.691358024691358 48.611111111111114)"/><use xlink:href="#f" transform="matrix(1,0,0,1,770,580) translate(55.55555555555556 48.611111111111114)"/><use xlink:href="#D" transform="matrix(1,0,0,1,770,580) translate(98.76543209876544 48.611111111111114)"/><use xlink:href="#E" transform="matrix(1,0,0,1,770,580) translate(0 75.27777777777779)"/><use xlink:href="#F" transform="matrix(1,0,0,1,770,580) translate(24.691358024691358 75.27777777777779)"/><use xlink:href="#f" transform="matrix(1,0,0,1,770,580) translate(55.55555555555556 75.27777777777779)"/><use xlink:href="#j" transform="matrix(1,0,0,1,770,580) translate(98.76543209876544 75.27777777777779)"/><use xlink:href="#k" transform="matrix(1,0,0,1,770,580) translate(161.66666666666669 75.27777777777779)"/><use xlink:href="#d" transform="matrix(1,0,0,1,770,580) translate(0 101.94444444444446)"/><use xlink:href="#F" transform="matrix(1,0,0,1,770,580) translate(24.691358024691358 101.94444444444446)"/><use xlink:href="#f" transform="matrix(1,0,0,1,770,580) translate(55.55555555555556 101.94444444444446)"/><use xlink:href="#j" transform="matrix(1,0,0,1,770,580) translate(98.76543209876544 101.94444444444446)"/><use xlink:href="#o" transform="matrix(1,0,0,1,770,580) translate(161.66666666666669 101.94444444444446)"/></g><path d="M582.35 431.8l134.6 284.9" stroke="#ccc" stroke-width="4" fill="none"/><path d="M584.18 431l-2.68 1.27v-5.6l.53-.24z" fill="#ccc"/><path d="M700.26 705.23l16.56 11.22 1.85-19.92" stroke="#ccc" stroke-width="4" fill="none"/><path d="M584.5 760h128.55" stroke="#5e5e5e" stroke-width="6" fill="none"/><path d="M584.58 763h-3.08v-6h3.08z" fill="#5e5e5e"/><path d="M695.4 770.18L712.6 760l-17.2-10.18" stroke="#5e5e5e" stroke-width="6" fill="none"/><path d="M1230 500h220v114h-220z" fill="none"/><g><use xlink:href="#a" transform="matrix(1,0,0,1,1230,500) translate(0 21.94444444444445)"/><use xlink:href="#G" transform="matrix(1,0,0,1,1230,500) translate(81.35802469135801 21.94444444444445)"/><use xlink:href="#H" transform="matrix(1,0,0,1,1230,500) translate(106.04938271604937 21.94444444444445)"/><use xlink:href="#I" transform="matrix(1,0,0,1,1230,500) translate(0 48.611111111111114)"/><use xlink:href="#J" transform="matrix(1,0,0,1,1230,500) translate(12.345679012345679 48.611111111111114)"/><use xlink:href="#f" transform="matrix(1,0,0,1,1230,500) translate(55.55555555555556 48.611111111111114)"/><use xlink:href="#D" transform="matrix(1,0,0,1,1230,500) translate(98.76543209876544 48.611111111111114)"/><use xlink:href="#E" transform="matrix(1,0,0,1,1230,500) translate(0 75.27777777777779)"/><use xlink:href="#K" transform="matrix(1,0,0,1,1230,500) translate(24.691358024691358 75.27777777777779)"/><use xlink:href="#f" transform="matrix(1,0,0,1,1230,500) translate(55.55555555555556 75.27777777777779)"/><use xlink:href="#j" transform="matrix(1,0,0,1,1230,500) translate(98.76543209876544 75.27777777777779)"/><use xlink:href="#k" transform="matrix(1,0,0,1,1230,500) translate(161.66666666666669 75.27777777777779)"/><use xlink:href="#d" transform="matrix(1,0,0,1,1230,500) translate(0 101.94444444444446)"/><use xlink:href="#F" transform="matrix(1,0,0,1,1230,500) translate(24.691358024691358 101.94444444444446)"/><use xlink:href="#f" transform="matrix(1,0,0,1,1230,500) translate(55.55555555555556 101.94444444444446)"/><use xlink:href="#j" transform="matrix(1,0,0,1,1230,500) translate(98.76543209876544 101.94444444444446)"/><use xlink:href="#o" transform="matrix(1,0,0,1,1230,500) translate(161.66666666666669 101.94444444444446)"/></g><defs><path fill="#333" d="M185-189c-5-48-123-54-124 2 14 75 158 14 163 119 3 78-121 87-175 55-17-10-28-26-33-46l33-7c5 56 141 63 141-1 0-78-155-14-162-118-5-82 145-84 179-34 5 7 8 16 11 25" id="L"/><path fill="#333" d="M141-36C126-15 110 5 73 4 37 3 15-17 15-53c-1-64 63-63 125-63 3-35-9-54-41-54-24 1-41 7-42 31l-33-3c5-37 33-52 76-52 45 0 72 20 72 64v82c-1 20 7 32 28 27v20c-31 9-61-2-59-35zM48-53c0 20 12 33 32 33 41-3 63-29 60-74-43 2-92-5-92 41" id="M"/><path fill="#333" d="M210-169c-67 3-38 105-44 169h-31v-121c0-29-5-50-35-48C34-165 62-65 56 0H25l-1-190h30c1 10-1 24 2 32 10-44 99-50 107 0 11-21 27-35 58-36 85-2 47 119 55 194h-31v-121c0-29-5-49-35-48" id="N"/><path fill="#333" d="M115-194c55 1 70 41 70 98S169 2 115 4C84 4 66-9 55-30l1 105H24l-1-265h31l2 30c10-21 28-34 59-34zm-8 174c40 0 45-34 45-75s-6-73-45-74c-42 0-51 32-51 76 0 43 10 73 51 73" id="O"/><path fill="#333" d="M24 0v-261h32V0H24" id="P"/><path fill="#333" d="M100-194c63 0 86 42 84 106H49c0 40 14 67 53 68 26 1 43-12 49-29l28 8c-11 28-37 45-77 45C44 4 14-33 15-96c1-61 26-98 85-98zm52 81c6-60-76-77-97-28-3 7-6 17-6 28h103" id="Q"/><g id="a"><use transform="matrix(0.06172839506172839,0,0,0.06172839506172839,0,0)" xlink:href="#L"/><use transform="matrix(0.06172839506172839,0,0,0.06172839506172839,14.814814814814813,0)" xlink:href="#M"/><use transform="matrix(0.06172839506172839,0,0,0.06172839506172839,27.160493827160494,0)" xlink:href="#N"/><use transform="matrix(0.06172839506172839,0,0,0.06172839506172839,45.61728395061728,0)" xlink:href="#O"/><use transform="matrix(0.06172839506172839,0,0,0.06172839506172839,57.962962962962955,0)" xlink:href="#P"/><use transform="matrix(0.06172839506172839,0,0,0.06172839506172839,62.8395061728395,0)" xlink:href="#Q"/></g><path fill="#333" d="M27 0v-27h64v-190l-56 39v-29l58-41h29v221h61V0H27" id="R"/><path fill="#333" d="M33-154v-36h34v36H33zM33 0v-36h34V0H33" id="S"/><g id="b"><use transform="matrix(0.06172839506172839,0,0,0.06172839506172839,0,0)" xlink:href="#R"/><use transform="matrix(0.06172839506172839,0,0,0.06172839506172839,12.345679012345679,0)" xlink:href="#S"/></g><path fill="#333" d="M87 75C49 33 22-17 22-94c0-76 28-126 65-167h31c-38 41-64 92-64 168S80 34 118 75H87" id="T"/><path fill="#333" d="M114-163C36-179 61-72 57 0H25l-1-190h30c1 12-1 29 2 39 6-27 23-49 58-41v29" id="U"/><path fill="#333" d="M117-194c89-4 53 116 60 194h-32v-121c0-31-8-49-39-48C34-167 62-67 57 0H25l-1-190h30c1 10-1 24 2 32 11-22 29-35 61-36" id="V"/><path fill="#333" d="M85-194c31 0 48 13 60 33l-1-100h32l1 261h-30c-2-10 0-23-3-31C134-8 116 4 85 4 32 4 16-35 15-94c0-66 23-100 70-100zm9 24c-40 0-46 34-46 75 0 40 6 74 45 74 42 0 51-32 51-76 0-42-9-74-50-73" id="W"/><path fill="#333" d="M100-194c62-1 85 37 85 99 1 63-27 99-86 99S16-35 15-95c0-66 28-99 85-99zM99-20c44 1 53-31 53-75 0-43-8-75-51-75s-53 32-53 75 10 74 51 75" id="X"/><path fill="#333" d="M33-261c38 41 65 92 65 168S71 34 33 75H2C39 34 66-17 66-93S39-220 2-261h31" id="Y"/><g id="c"><use transform="matrix(0.06172839506172839,0,0,0.06172839506172839,0,0)" xlink:href="#T"/><use transform="matrix(0.06172839506172839,0,0,0.06172839506172839,7.345679012345679,0)" xlink:href="#U"/><use transform="matrix(0.06172839506172839,0,0,0.06172839506172839,14.691358024691358,0)" xlink:href="#M"/><use transform="matrix(0.06172839506172839,0,0,0.06172839506172839,27.037037037037038,0)" xlink:href="#V"/><use transform="matrix(0.06172839506172839,0,0,0.06172839506172839,39.382716049382715,0)" xlink:href="#W"/><use transform="matrix(0.06172839506172839,0,0,0.06172839506172839,51.72839506172839,0)" xlink:href="#X"/><use transform="matrix(0.06172839506172839,0,0,0.06172839506172839,64.07407407407408,0)" xlink:href="#N"/><use transform="matrix(0.06172839506172839,0,0,0.06172839506172839,82.53086419753086,0)" xlink:href="#Y"/></g><path fill="#333" d="M110-160c48 1 74 30 74 79 0 53-28 85-80 85-65 0-83-55-86-122-5-90 50-162 133-122 14 7 22 21 27 39l-31 6c-5-40-67-38-82-6-9 19-15 44-15 74 11-20 30-34 60-33zm-7 138c34 0 49-23 49-58s-16-56-50-56c-29 0-50 16-49 49 1 36 15 65 50 65" id="Z"/><path fill="#333" d="M101-251c68 0 85 55 85 127S166 4 100 4C33 4 14-52 14-124c0-73 17-127 87-127zm-1 229c47 0 54-49 54-102s-4-102-53-102c-51 0-55 48-55 102 0 53 5 102 54 102" id="aa"/><g id="e"><use transform="matrix(0.06172839506172839,0,0,0.06172839506172839,0,0)" xlink:href="#Z"/><use transform="matrix(0.06172839506172839,0,0,0.06172839506172839,12.345679012345679,0)" xlink:href="#aa"/></g><g id="f"><use transform="matrix(0.06172839506172839,0,0,0.06172839506172839,0,0)" xlink:href="#aa"/><use transform="matrix(0.06172839506172839,0,0,0.06172839506172839,12.345679012345679,0)" xlink:href="#aa"/><use transform="matrix(0.06172839506172839,0,0,0.06172839506172839,24.691358024691358,0)" xlink:href="#aa"/></g><path fill="#333" d="M96-169c-40 0-48 33-48 73s9 75 48 75c24 0 41-14 43-38l32 2c-6 37-31 61-74 61-59 0-76-41-82-99-10-93 101-131 147-64 4 7 5 14 7 22l-32 3c-4-21-16-35-41-35" id="ab"/><path fill="#333" d="M135-143c-3-34-86-38-87 0 15 53 115 12 119 90S17 21 10-45l28-5c4 36 97 45 98 0-10-56-113-15-118-90-4-57 82-63 122-42 12 7 21 19 24 35" id="ac"/><g id="g"><use transform="matrix(0.06172839506172839,0,0,0.06172839506172839,0,0)" xlink:href="#ab"/><use transform="matrix(0.06172839506172839,0,0,0.06172839506172839,11.11111111111111,0)" xlink:href="#M"/><use transform="matrix(0.06172839506172839,0,0,0.06172839506172839,23.45679012345679,0)" xlink:href="#ac"/><use transform="matrix(0.06172839506172839,0,0,0.06172839506172839,34.5679012345679,0)" xlink:href="#Q"/><use transform="matrix(0.06172839506172839,0,0,0.06172839506172839,46.913580246913575,0)" xlink:href="#ac"/></g><path fill="#333" d="M54-142c48-35 137-8 131 61C196 18 31 33 14-55l32-4c7 23 22 37 52 37 35-1 51-22 54-58 4-55-73-65-99-34H22l8-134h141v27H59" id="ad"/><path fill="#333" d="M134-131c28 9 52 24 51 62-1 50-34 73-85 73S17-19 16-69c0-36 21-54 49-61-75-25-45-126 34-121 46 3 78 18 79 63 0 33-17 51-44 57zm-34-11c31 1 46-15 46-44 0-28-17-43-47-42-29 0-46 13-45 42 1 28 16 44 46 44zm1 122c35 0 51-18 51-52 0-30-18-46-53-46-33 0-51 17-51 47 0 34 19 51 53 51" id="ae"/><g id="h"><use transform="matrix(0.06172839506172839,0,0,0.06172839506172839,0,0)" xlink:href="#ad"/><use transform="matrix(0.06172839506172839,0,0,0.06172839506172839,12.345679012345679,0)" xlink:href="#ae"/></g><path fill="#333" d="M101-251c82-7 93 87 43 132L82-64C71-53 59-42 53-27h129V0H18c2-99 128-94 128-182 0-28-16-43-45-43s-46 15-49 41l-32-3c6-41 34-60 81-64" id="af"/><g id="i"><use transform="matrix(0.06172839506172839,0,0,0.06172839506172839,0,0)" xlink:href="#af"/><use transform="matrix(0.06172839506172839,0,0,0.06172839506172839,12.345679012345679,0)" xlink:href="#aa"/><use transform="matrix(0.06172839506172839,0,0,0.06172839506172839,24.691358024691358,0)" xlink:href="#aa"/></g><path fill="#333" d="M59-47c-2 24 18 29 38 22v24C64 9 27 4 27-40v-127H5v-23h24l9-43h21v43h35v23H59v120" id="ag"/><path fill="#333" d="M177-190C167-65 218 103 67 71c-23-6-38-20-44-43l32-5c15 47 100 32 89-28v-30C133-14 115 1 83 1 29 1 15-40 15-95c0-56 16-97 71-98 29-1 48 16 59 35 1-10 0-23 2-32h30zM94-22c36 0 50-32 50-73 0-42-14-75-50-75-39 0-46 34-46 75s6 73 46 73" id="ah"/><g id="j"><use transform="matrix(0.06172839506172839,0,0,0.06172839506172839,0,0)" xlink:href="#ag"/><use transform="matrix(0.06172839506172839,0,0,0.06172839506172839,6.172839506172839,0)" xlink:href="#M"/><use transform="matrix(0.06172839506172839,0,0,0.06172839506172839,18.51851851851852,0)" xlink:href="#U"/><use transform="matrix(0.06172839506172839,0,0,0.06172839506172839,25.864197530864196,0)" xlink:href="#ah"/><use transform="matrix(0.06172839506172839,0,0,0.06172839506172839,38.20987654320987,0)" xlink:href="#Q"/><use transform="matrix(0.06172839506172839,0,0,0.06172839506172839,50.55555555555555,0)" xlink:href="#ag"/></g><use transform="matrix(0.06172839506172839,0,0,0.06172839506172839,0,0)" xlink:href="#aa" id="k"/><use transform="matrix(0.06172839506172839,0,0,0.06172839506172839,0,0)" xlink:href="#R" id="m"/><g id="n"><use transform="matrix(0.06172839506172839,0,0,0.06172839506172839,0,0)" xlink:href="#ae"/><use transform="matrix(0.06172839506172839,0,0,0.06172839506172839,12.345679012345679,0)" xlink:href="#aa"/><use transform="matrix(0.06172839506172839,0,0,0.06172839506172839,24.691358024691358,0)" xlink:href="#aa"/></g><use transform="matrix(0.06172839506172839,0,0,0.06172839506172839,0,0)" xlink:href="#R" id="o"/><path fill="#333" d="M140-251c81 0 123 46 123 126C263-46 219 4 140 4 59 4 17-45 17-125s42-126 123-126zm0 227c63 0 89-41 89-101s-29-99-89-99c-61 0-89 39-89 99S79-25 140-24" id="ai"/><path fill="#333" d="M24-231v-30h32v30H24zM24 0v-190h32V0H24" id="aj"/><g id="p"><use transform="matrix(0.06172839506172839,0,0,0.06172839506172839,0,0)" xlink:href="#ai"/><use transform="matrix(0.06172839506172839,0,0,0.06172839506172839,17.28395061728395,0)" xlink:href="#U"/><use transform="matrix(0.06172839506172839,0,0,0.06172839506172839,24.629629629629626,0)" xlink:href="#aj"/><use transform="matrix(0.06172839506172839,0,0,0.06172839506172839,29.50617283950617,0)" xlink:href="#ah"/><use transform="matrix(0.06172839506172839,0,0,0.06172839506172839,41.85185185185185,0)" xlink:href="#aj"/><use transform="matrix(0.06172839506172839,0,0,0.06172839506172839,46.72839506172839,0)" xlink:href="#V"/><use transform="matrix(0.06172839506172839,0,0,0.06172839506172839,59.07407407407407,0)" xlink:href="#M"/><use transform="matrix(0.06172839506172839,0,0,0.06172839506172839,71.41975308641975,0)" xlink:href="#P"/></g><use transform="matrix(0.06172839506172839,0,0,0.06172839506172839,0,0)" xlink:href="#R" id="q"/><g id="r"><use transform="matrix(0.06172839506172839,0,0,0.06172839506172839,0,0)" xlink:href="#aa"/><use transform="matrix(0.06172839506172839,0,0,0.06172839506172839,12.345679012345679,0)" xlink:href="#aa"/><use transform="matrix(0.06172839506172839,0,0,0.06172839506172839,24.691358024691358,0)" xlink:href="#aa"/></g><g id="s"><use transform="matrix(0.06172839506172839,0,0,0.06172839506172839,0,0)" xlink:href="#ab"/><use transform="matrix(0.06172839506172839,0,0,0.06172839506172839,11.11111111111111,0)" xlink:href="#M"/><use transform="matrix(0.06172839506172839,0,0,0.06172839506172839,23.45679012345679,0)" xlink:href="#ac"/><use transform="matrix(0.06172839506172839,0,0,0.06172839506172839,34.5679012345679,0)" xlink:href="#Q"/><use transform="matrix(0.06172839506172839,0,0,0.06172839506172839,46.913580246913575,0)" xlink:href="#ac"/></g><path fill="#333" d="M99-251c64 0 84 50 84 122C183-37 130 33 47-8c-14-7-20-23-25-40l30-5c6 39 69 39 84 7 9-19 16-44 16-74-10 22-31 35-62 35-49 0-73-33-73-83 0-54 28-83 82-83zm-1 141c31-1 51-18 51-49 0-36-14-67-51-67-34 0-49 23-49 58 0 34 15 58 49 58" id="ak"/><path fill="#333" d="M64 0c3-98 48-159 88-221H18v-27h164v26C143-157 98-101 97 0H64" id="al"/><g id="u"><use transform="matrix(0.06172839506172839,0,0,0.06172839506172839,0,0)" xlink:href="#ak"/><use transform="matrix(0.06172839506172839,0,0,0.06172839506172839,12.345679012345679,0)" xlink:href="#al"/><use transform="matrix(0.06172839506172839,0,0,0.06172839506172839,24.691358024691358,0)" xlink:href="#aa"/></g><g id="v"><use transform="matrix(0.06172839506172839,0,0,0.06172839506172839,0,0)" xlink:href="#ag"/><use transform="matrix(0.06172839506172839,0,0,0.06172839506172839,6.172839506172839,0)" xlink:href="#M"/><use transform="matrix(0.06172839506172839,0,0,0.06172839506172839,18.51851851851852,0)" xlink:href="#U"/><use transform="matrix(0.06172839506172839,0,0,0.06172839506172839,25.864197530864196,0)" xlink:href="#ah"/><use transform="matrix(0.06172839506172839,0,0,0.06172839506172839,38.20987654320987,0)" xlink:href="#Q"/><use transform="matrix(0.06172839506172839,0,0,0.06172839506172839,50.55555555555555,0)" xlink:href="#ag"/></g><use transform="matrix(0.06172839506172839,0,0,0.06172839506172839,0,0)" xlink:href="#aa" id="w"/><path fill="#333" d="M126-127c33 6 58 20 58 59 0 88-139 92-164 29-3-8-5-16-6-25l32-3c6 27 21 44 54 44 32 0 52-15 52-46 0-38-36-46-79-43v-28c39 1 72-4 72-42 0-27-17-43-46-43-28 0-47 15-49 41l-32-3c6-42 35-63 81-64 48-1 79 21 79 65 0 36-21 52-52 59" id="am"/><g id="y"><use transform="matrix(0.06172839506172839,0,0,0.06172839506172839,0,0)" xlink:href="#am"/><use transform="matrix(0.06172839506172839,0,0,0.06172839506172839,12.345679012345679,0)" xlink:href="#aa"/></g><use transform="matrix(0.06172839506172839,0,0,0.06172839506172839,0,0)" xlink:href="#R" id="z"/><g id="B"><use transform="matrix(0.06172839506172839,0,0,0.06172839506172839,0,0)" xlink:href="#af"/><use transform="matrix(0.06172839506172839,0,0,0.06172839506172839,12.345679012345679,0)" xlink:href="#S"/></g><g id="C"><use transform="matrix(0.06172839506172839,0,0,0.06172839506172839,0,0)" xlink:href="#T"/><use transform="matrix(0.06172839506172839,0,0,0.06172839506172839,7.345679012345679,0)" xlink:href="#R"/><use transform="matrix(0.06172839506172839,0,0,0.06172839506172839,19.691358024691358,0)" xlink:href="#S"/><use transform="matrix(0.06172839506172839,0,0,0.06172839506172839,25.864197530864196,0)" xlink:href="#R"/><use transform="matrix(0.06172839506172839,0,0,0.06172839506172839,38.20987654320987,0)" xlink:href="#Y"/></g><g id="D"><use transform="matrix(0.06172839506172839,0,0,0.06172839506172839,0,0)" xlink:href="#ab"/><use transform="matrix(0.06172839506172839,0,0,0.06172839506172839,11.11111111111111,0)" xlink:href="#M"/><use transform="matrix(0.06172839506172839,0,0,0.06172839506172839,23.45679012345679,0)" xlink:href="#ac"/><use transform="matrix(0.06172839506172839,0,0,0.06172839506172839,34.5679012345679,0)" xlink:href="#Q"/><use transform="matrix(0.06172839506172839,0,0,0.06172839506172839,46.913580246913575,0)" xlink:href="#ac"/></g><g id="F"><use transform="matrix(0.06172839506172839,0,0,0.06172839506172839,0,0)" xlink:href="#am"/><use transform="matrix(0.06172839506172839,0,0,0.06172839506172839,12.345679012345679,0)" xlink:href="#aa"/></g><g id="G"><use transform="matrix(0.06172839506172839,0,0,0.06172839506172839,0,0)" xlink:href="#am"/><use transform="matrix(0.06172839506172839,0,0,0.06172839506172839,12.345679012345679,0)" xlink:href="#S"/></g><g id="H"><use transform="matrix(0.06172839506172839,0,0,0.06172839506172839,0,0)" xlink:href="#T"/><use transform="matrix(0.06172839506172839,0,0,0.06172839506172839,7.345679012345679,0)" xlink:href="#R"/><use transform="matrix(0.06172839506172839,0,0,0.06172839506172839,19.691358024691358,0)" xlink:href="#S"/><use transform="matrix(0.06172839506172839,0,0,0.06172839506172839,25.864197530864196,0)" xlink:href="#am"/><use transform="matrix(0.06172839506172839,0,0,0.06172839506172839,38.20987654320987,0)" xlink:href="#Y"/></g><g id="J"><use transform="matrix(0.06172839506172839,0,0,0.06172839506172839,0,0)" xlink:href="#R"/><use transform="matrix(0.06172839506172839,0,0,0.06172839506172839,12.345679012345679,0)" xlink:href="#af"/><use transform="matrix(0.06172839506172839,0,0,0.06172839506172839,24.691358024691358,0)" xlink:href="#aa"/></g><g id="K"><use transform="matrix(0.06172839506172839,0,0,0.06172839506172839,0,0)" xlink:href="#ak"/><use transform="matrix(0.06172839506172839,0,0,0.06172839506172839,12.345679012345679,0)" xlink:href="#aa"/></g></defs></g></svg>